<svg width="15" height="11" viewBox="0 0 15 11" fill="none" xmlns="http://www.w3.org/2000/svg">
<path d="M5.67186 0.0999022C5.67186 0.0999022 3.76171 0.231152 2.51249 1.23428C2.50663 1.23662 2.4996 1.24014 2.49374 1.24365C2.27694 1.44404 2.11405 1.75459 1.91249 2.1999C1.71093 2.64521 1.49764 3.21826 1.30311 3.85928C0.915222 5.14248 0.599988 6.71748 0.599988 8.1999C0.598816 8.25264 0.611707 8.3042 0.637488 8.3499C1.07577 9.11982 1.88202 9.58506 2.63436 9.87803C3.38671 10.171 4.08163 10.2882 4.43436 10.2999C4.53397 10.3034 4.62889 10.2577 4.68749 10.178L5.41874 9.16553C6.00819 9.30498 6.6996 9.3999 7.49999 9.3999C8.30038 9.3999 8.99178 9.30498 9.58124 9.16553L10.3125 10.178C10.3711 10.2577 10.466 10.3034 10.5656 10.2999C10.9183 10.2882 11.6133 10.171 12.3656 9.87803C13.118 9.58506 13.9242 9.11982 14.3625 8.3499C14.3883 8.3042 14.4012 8.25264 14.4 8.1999C14.4 6.71748 14.0848 5.14248 13.6969 3.85928C13.5023 3.21826 13.289 2.64521 13.0875 2.1999C12.8859 1.75459 12.723 1.44404 12.5062 1.24365C12.5004 1.24014 12.4933 1.23662 12.4875 1.23428C11.2383 0.231152 9.32811 0.0999022 9.32811 0.0999022C9.30585 0.0975586 9.28475 0.0975586 9.26249 0.0999022C9.15819 0.113965 9.0703 0.181934 9.02811 0.278027C9.02811 0.278027 8.92616 0.501855 8.85936 0.821777C8.2746 0.728027 7.78241 0.699902 7.49999 0.699902C7.21757 0.699902 6.72538 0.728027 6.14061 0.821777C6.07382 0.501855 5.97186 0.278027 5.97186 0.278027C5.9203 0.16084 5.7996 0.0893554 5.67186 0.0999022ZM5.48436 0.746777C5.50663 0.807715 5.52186 0.865137 5.54061 0.934277C4.86444 1.09131 4.12382 1.34795 3.43124 1.77803C3.32225 1.82373 3.25077 1.9292 3.24725 2.04756C3.24491 2.16475 3.31171 2.27373 3.41718 2.32529C3.52382 2.37568 3.65038 2.36045 3.74061 2.28428C5.13046 1.42295 6.89882 1.2999 7.49999 1.2999C8.10116 1.2999 9.86952 1.42295 11.2594 2.28428C11.3496 2.36045 11.4762 2.37568 11.5828 2.32529C11.6883 2.27373 11.7551 2.16475 11.7527 2.04756C11.7492 1.9292 11.6777 1.82373 11.5687 1.77803C10.8762 1.34795 10.1355 1.09131 9.45936 0.934277C9.47811 0.865137 9.49335 0.807715 9.51561 0.746777C9.8578 0.788965 11.1879 0.968262 12.0937 1.68428C12.1523 1.73818 12.3562 2.03818 12.5437 2.45303C12.7312 2.86787 12.9281 3.40811 13.1156 4.02803C13.4812 5.2374 13.7765 6.7292 13.7906 8.09678C13.4496 8.64873 12.8098 9.05889 12.15 9.31553C11.55 9.54873 10.9898 9.65303 10.6969 9.68115L10.1906 8.99678C10.4484 8.91357 10.6805 8.82334 10.8844 8.73428C11.6414 8.40147 12.0469 8.0499 12.0469 8.0499C12.1711 7.93857 12.1816 7.74756 12.0703 7.62334C11.959 7.49912 11.768 7.48857 11.6437 7.5999C11.6437 7.5999 11.3297 7.88701 10.6406 8.19053C10.3875 8.30186 10.0805 8.41201 9.73124 8.50928C9.65038 8.4999 9.56952 8.52334 9.50624 8.5749C8.94725 8.71084 8.2828 8.7999 7.49999 8.7999C6.71132 8.7999 6.04569 8.70264 5.48436 8.56553C5.42108 8.52334 5.34374 8.50576 5.26874 8.51865C4.91835 8.42139 4.61366 8.30186 4.35936 8.19053C3.6703 7.88701 3.35624 7.5999 3.35624 7.5999C3.28827 7.53662 3.19452 7.50967 3.10311 7.5249C2.9871 7.54248 2.891 7.62568 2.85936 7.73936C2.82655 7.85186 2.86405 7.97373 2.95311 8.0499C2.95311 8.0499 3.35858 8.40147 4.11561 8.73428C4.31952 8.82334 4.55155 8.91357 4.80936 8.99678L4.30311 9.68115C4.01014 9.65303 3.44999 9.54873 2.84999 9.31553C2.19022 9.05889 1.55038 8.64873 1.20936 8.09678C1.22343 6.7292 1.51874 5.2374 1.88436 4.02803C2.07186 3.40811 2.26874 2.86787 2.45624 2.45303C2.64374 2.03818 2.84764 1.73818 2.90624 1.68428C3.8121 0.968262 5.14218 0.788965 5.48436 0.746777ZM5.54999 4.2999C4.78475 4.2999 4.19999 4.99482 4.19999 5.7999C4.19999 6.60498 4.78475 7.2999 5.54999 7.2999C6.31522 7.2999 6.89999 6.60498 6.89999 5.7999C6.89999 4.99482 6.31522 4.2999 5.54999 4.2999ZM9.44999 4.2999C8.68475 4.2999 8.09999 4.99482 8.09999 5.7999C8.09999 6.60498 8.68475 7.2999 9.44999 7.2999C10.2152 7.2999 10.8 6.60498 10.8 5.7999C10.8 4.99482 10.2152 4.2999 9.44999 4.2999ZM5.54999 4.8999C5.94491 4.8999 6.29999 5.27959 6.29999 5.7999C6.29999 6.32022 5.94491 6.6999 5.54999 6.6999C5.15507 6.6999 4.79999 6.32022 4.79999 5.7999C4.79999 5.27959 5.15507 4.8999 5.54999 4.8999ZM9.44999 4.8999C9.84491 4.8999 10.2 5.27959 10.2 5.7999C10.2 6.32022 9.84491 6.6999 9.44999 6.6999C9.05507 6.6999 8.69999 6.32022 8.69999 5.7999C8.69999 5.27959 9.05507 4.8999 9.44999 4.8999Z" fill="white"/>
</svg>
