<svg width="13" height="14" viewBox="0 0 13 14" fill="none" xmlns="http://www.w3.org/2000/svg">
<path d="M3.77131 0.740234C1.73028 0.740234 0.0694199 2.38013 0.0694199 4.39539V9.45638C0.0694199 11.4716 1.73028 13.1115 3.77131 13.1115H8.89701C10.938 13.1115 12.5989 11.4716 12.5989 9.45638V4.39539C12.5989 2.38013 10.938 0.740234 8.89701 0.740234H3.77131ZM3.77131 1.30257H8.89701C10.6302 1.30257 12.0294 2.68408 12.0294 4.39539V9.45638C12.0294 11.1677 10.6302 12.5492 8.89701 12.5492H3.77131C2.03812 12.5492 0.638942 11.1677 0.638942 9.45638V4.39539C0.638942 2.68408 2.03812 1.30257 3.77131 1.30257ZM9.75129 2.98956C9.60025 2.98956 9.45539 3.04881 9.34858 3.15427C9.24177 3.25972 9.18177 3.40275 9.18177 3.55189C9.18177 3.70103 9.24177 3.84406 9.34858 3.94952C9.45539 4.05498 9.60025 4.11423 9.75129 4.11423C9.90234 4.11423 10.0472 4.05498 10.154 3.94952C10.2608 3.84406 10.3208 3.70103 10.3208 3.55189C10.3208 3.40275 10.2608 3.25972 10.154 3.15427C10.0472 3.04881 9.90234 2.98956 9.75129 2.98956ZM6.33416 3.83306C4.60757 3.83306 3.20179 5.22109 3.20179 6.92588C3.20179 8.63067 4.60757 10.0187 6.33416 10.0187C8.06075 10.0187 9.46653 8.63067 9.46653 6.92588C9.46653 5.22109 8.06075 3.83306 6.33416 3.83306ZM6.33416 4.39539C7.75296 4.39539 8.89701 5.525 8.89701 6.92588C8.89701 8.32677 7.75296 9.45638 6.33416 9.45638C4.91537 9.45638 3.77131 8.32677 3.77131 6.92588C3.77131 5.525 4.91537 4.39539 6.33416 4.39539Z" fill="white"/>
</svg>
