<svg width="14" height="14" viewBox="0 0 14 14" fill="none" xmlns="http://www.w3.org/2000/svg">
<path d="M7.11408 0.521973C3.50033 0.521973 0.564575 3.42066 0.564575 6.98879C0.564575 8.13569 0.883134 9.20603 1.41441 10.1404L0.575142 13.0987C0.561734 13.146 0.561129 13.196 0.573385 13.2436C0.585642 13.2913 0.610334 13.3349 0.644997 13.3702C0.679661 13.4055 0.723086 13.4312 0.770943 13.4447C0.8188 13.4582 0.869416 13.4592 0.917746 13.4474L4.04177 12.6829C4.95975 13.1668 6.0014 13.4556 7.11408 13.4556C10.7278 13.4556 13.6636 10.5569 13.6636 6.98879C13.6636 3.42066 10.7278 0.521973 7.11408 0.521973ZM7.11408 1.0843C10.42 1.0843 13.0941 3.72458 13.0941 6.98879C13.0941 10.253 10.42 12.8933 7.11408 12.8933C6.0542 12.8933 5.06155 12.6204 4.19861 12.1437C4.1355 12.1089 4.06134 12.099 3.99116 12.1162L1.25534 12.7856L1.98894 10.2013C1.99943 10.1648 2.00233 10.1266 1.99746 10.0889C1.99258 10.0513 1.98003 10.015 1.96057 9.98222C1.43614 9.10417 1.1341 8.08255 1.1341 6.98879C1.1341 3.72458 3.80814 1.0843 7.11408 1.0843ZM4.73421 3.6148C4.55167 3.6148 4.29097 3.68185 4.07681 3.90969C3.94818 4.04654 3.41218 4.56219 3.41218 5.46874C3.41218 6.41388 4.07607 7.22942 4.15635 7.33421H4.1569V7.33475C4.14929 7.32487 4.25879 7.48145 4.40495 7.66919C4.55112 7.85693 4.75552 8.10351 5.0123 8.37046C5.52585 8.90435 6.24791 9.52137 7.14411 9.89875C7.55682 10.0723 7.88241 10.177 8.12909 10.2535C8.58625 10.3952 9.00263 10.3737 9.31541 10.3282C9.54953 10.2941 9.80703 10.1831 10.0618 10.024C10.3166 9.86476 10.5663 9.66682 10.6764 9.36607C10.7553 9.15046 10.7954 8.95121 10.8099 8.78726C10.8171 8.70529 10.818 8.63294 10.8126 8.56595C10.8072 8.49897 10.813 8.44766 10.7498 8.34519C10.6172 8.13027 10.4671 8.12466 10.3104 8.0481C10.2234 8.00557 9.97554 7.88608 9.72698 7.76913C9.4787 7.65232 9.26371 7.54886 9.13132 7.50225C9.04767 7.47253 8.94553 7.42976 8.79817 7.44623C8.65081 7.46271 8.50527 7.56769 8.42053 7.6917C8.34021 7.80925 8.01688 8.18609 7.9183 8.29687C7.91699 8.29608 7.92555 8.29997 7.8866 8.28094C7.76469 8.22137 7.61559 8.17071 7.39494 8.05579C7.1743 7.94087 6.8983 7.77117 6.59628 7.50829V7.50774C6.14675 7.11699 5.83188 6.6264 5.73254 6.4616C5.73923 6.45374 5.73175 6.46326 5.74589 6.44952L5.74645 6.44897C5.84797 6.35024 5.93794 6.23232 6.01397 6.14584C6.12176 6.02323 6.16933 5.91514 6.22086 5.81415C6.32357 5.61289 6.26638 5.39141 6.20696 5.27488V5.27434C6.21106 5.2824 6.17481 5.20343 6.13577 5.11234C6.09661 5.02098 6.0467 4.90255 5.99339 4.77625C5.88677 4.52367 5.76773 4.24037 5.69695 4.07444V4.07389C5.61356 3.87844 5.50073 3.73764 5.35323 3.66971C5.20573 3.60178 5.07541 3.6211 5.07014 3.62084H5.06958C4.96432 3.61604 4.84881 3.6148 4.73421 3.6148ZM4.73421 4.17713C4.844 4.17713 4.95223 4.17845 5.04289 4.18262C5.13614 4.18721 5.13034 4.18759 5.11241 4.17933C5.09419 4.17094 5.11891 4.16821 5.17192 4.29245C5.24123 4.45492 5.36085 4.73925 5.4678 4.99262C5.52128 5.11931 5.57133 5.2382 5.6113 5.33145C5.65127 5.4247 5.67292 5.47676 5.69806 5.5264V5.52695L5.69861 5.52749C5.72326 5.5755 5.72108 5.54477 5.71252 5.56154C5.65243 5.6793 5.64427 5.70822 5.58349 5.77736C5.49093 5.88264 5.39653 6.00004 5.34656 6.04864C5.30284 6.09105 5.22395 6.15711 5.1747 6.28642C5.12537 6.41594 5.14839 6.59363 5.22754 6.72629C5.33291 6.90292 5.68014 7.46095 6.21975 7.93004C6.55958 8.22583 6.87618 8.42159 7.12909 8.55332C7.38201 8.68506 7.588 8.76199 7.6341 8.78452C7.74356 8.838 7.86318 8.87954 8.00229 8.86305C8.14139 8.84656 8.26132 8.76322 8.33766 8.67798L8.33822 8.67743C8.43982 8.5637 8.74173 8.22331 8.8866 8.01351C8.89274 8.01564 8.89073 8.01398 8.93888 8.03108V8.03163H8.93944C8.96142 8.03936 9.23677 8.16104 9.48226 8.27655C9.72776 8.39206 9.97694 8.51211 10.0579 8.55168C10.1748 8.60878 10.23 8.64595 10.2442 8.64613C10.2452 8.67087 10.2462 8.69768 10.2426 8.73839C10.2326 8.85131 10.202 9.00762 10.1408 9.17496C10.1108 9.25688 9.95457 9.42584 9.75757 9.54894C9.56057 9.67203 9.32079 9.75898 9.23199 9.77189C8.96499 9.81074 8.64799 9.82492 8.29984 9.71698C8.05844 9.64216 7.75744 9.54532 7.36769 9.38145C6.57725 9.0486 5.90544 8.48221 5.42553 7.9833C5.18558 7.73385 4.99334 7.50164 4.85657 7.32597C4.72005 7.15062 4.66044 7.05938 4.61074 6.99483L4.61018 6.99428C4.52196 6.87908 3.98171 6.1371 3.98171 5.46874C3.98171 4.76139 4.31445 4.484 4.4945 4.29245C4.58902 4.19189 4.69236 4.17713 4.73421 4.17713Z" fill="white"/>
</svg>
